<svg width="148" height="150" viewBox="0 0 148 150" fill="none" xmlns="http://www.w3.org/2000/svg">
<path fill-rule="evenodd" clip-rule="evenodd" d="M124.5 0H54.5C53.837 0 53.2011 0.263398 52.7322 0.732239C52.2634 1.20108 52 1.83696 52 2.5V60H32C29.3478 60 26.8043 61.0536 24.9289 62.9289C23.0536 64.8043 22 67.3478 22 70V147.5C22 148.163 22.2634 148.799 22.7322 149.268C23.2011 149.737 23.837 150 24.5 150H94.5C95.163 150 95.7989 149.737 96.2678 149.268C96.7366 148.799 97 148.163 97 147.5V115H117C119.652 115 122.196 113.946 124.071 112.071C125.946 110.196 127 107.652 127 105V2.5C127 1.83696 126.737 1.20108 126.268 0.732239C125.799 0.263398 125.163 0 124.5 0V0ZM92 70V145H27V70C27 68.6739 27.5268 67.4022 28.4645 66.4645C29.4022 65.5268 30.6739 65 32 65H93.342C92.46 66.5185 91.9969 68.2439 92 70ZM108.39 110H97V70C97 68.6739 97.5268 67.4022 98.4645 66.4645C99.4022 65.5268 100.674 65 102 65C103.326 65 104.598 65.5268 105.536 66.4645C106.473 67.4022 107 68.6739 107 70V105C107.01 106.761 107.49 108.487 108.39 110V110ZM122 105C122 106.326 121.473 107.598 120.536 108.536C119.598 109.473 118.326 110 117 110C115.674 110 114.402 109.473 113.464 108.536C112.527 107.598 112 106.326 112 105V70C112 67.3478 110.946 64.8043 109.071 62.9289C107.196 61.0536 104.652 60 102 60H67V24.75C69.4003 24.2559 71.6032 23.0689 73.3361 21.336C75.0689 19.6032 76.2559 17.4003 76.75 15H102.25C102.744 17.4004 103.931 19.6034 105.664 21.3363C107.397 23.0693 109.6 24.2561 112 24.75V57.5H117V22.5C117 21.837 116.737 21.2011 116.268 20.7322C115.799 20.2634 115.163 20 114.5 20C112.511 20 110.603 19.2098 109.197 17.8033C107.79 16.3968 107 14.4891 107 12.5C107 11.837 106.737 11.2011 106.268 10.7322C105.799 10.2634 105.163 10 104.5 10H74.5C73.837 10 73.2011 10.2634 72.7322 10.7322C72.2634 11.2011 72 11.837 72 12.5C72 14.4891 71.2098 16.3968 69.8033 17.8033C68.3968 19.2098 66.4891 20 64.5 20C63.837 20 63.2011 20.2634 62.7322 20.7322C62.2634 21.2011 62 21.837 62 22.5V60H57V5H122V105ZM62 10H67V15H62V10ZM112 10H117V15H112V10ZM57 99.637V102.5H62V99.637C63.3556 99.2153 64.554 98.3975 65.4407 97.2888C66.3275 96.1801 66.862 94.8314 66.9755 93.4162C67.089 92.0011 66.7762 90.5843 66.0775 89.3485C65.3788 88.1127 64.3261 87.1143 63.055 86.482L58.182 84.045C57.7518 83.8301 57.4067 83.4762 57.2026 83.0407C56.9986 82.6052 56.9476 82.1135 57.0579 81.6454C57.1682 81.1773 57.4333 80.7601 57.8103 80.4615C58.1873 80.1628 58.6541 80.0002 59.135 80H59.865C60.4308 80.0013 60.9731 80.2267 61.3732 80.6268C61.7733 81.0269 61.9987 81.5692 62 82.135V82.5H67V82.135C66.9941 80.6213 66.5063 79.1489 65.6073 77.9311C64.7083 76.7133 63.4448 75.8134 62 75.362V72.5H57V75.362C55.6444 75.7837 54.446 76.6015 53.5593 77.7102C52.6725 78.8189 52.138 80.1676 52.0245 81.5828C51.911 82.9979 52.2238 84.4146 52.9225 85.6505C53.6212 86.8863 54.6739 87.8847 55.945 88.517L60.817 90.955C61.2472 91.1699 61.5922 91.5237 61.7963 91.9591C62.0003 92.3945 62.0514 92.8861 61.9412 93.3541C61.8311 93.8222 61.5661 94.2393 61.1893 94.5381C60.8125 94.8368 60.3458 94.9995 59.865 95H59.135C58.5692 94.9987 58.0269 94.7733 57.6268 94.3732C57.2267 93.9731 57.0013 93.4308 57 92.865V92.5H52V92.865C52.0055 94.3786 52.4932 95.8512 53.3922 97.0689C54.2913 98.2866 55.555 99.1862 57 99.637V99.637ZM39.5 112.5H44.5V117.5H39.5V112.5ZM49.5 112.5H84.5V117.5H49.5V112.5ZM34.5 122.5H84.5V127.5H34.5V122.5ZM34.5 132.5H77V137.5H34.5V132.5ZM72 85H77V90H72V85ZM42 85H47V90H42V85ZM89.5 42.5C86.186 42.504 83.0089 43.8222 80.6656 46.1655C78.3222 48.5089 77.004 51.686 77 55H82C82 53.0109 82.7902 51.1032 84.1967 49.6967C85.6032 48.2902 87.5109 47.5 89.5 47.5C91.4891 47.5 93.3968 48.2902 94.8033 49.6967C96.2098 51.1032 97 53.0109 97 55H102C101.996 51.686 100.678 48.5089 98.3344 46.1655C95.9911 43.8222 92.814 42.504 89.5 42.5V42.5ZM12 85H17V140H12V85ZM132 10H137V60H132V10ZM132 65H137V70H132V65Z" fill="url(#paint0_linear_562_12410)"/>
<path opacity="0.1" d="M74 142C111.003 142 141 112.003 141 75C141 37.9969 111.003 8 74 8C36.9969 8 7 37.9969 7 75C7 112.003 36.9969 142 74 142Z" fill="#134298"/>
<defs>
<linearGradient id="paint0_linear_562_12410" x1="12" y1="75" x2="137" y2="75" gradientUnits="userSpaceOnUse">
<stop stop-color="#ED1117"/>
<stop offset="1" stop-color="#134298"/>
</linearGradient>
</defs>
</svg>
