<svg width="159" height="148" viewBox="0 0 159 148" fill="none" xmlns="http://www.w3.org/2000/svg">
<g clip-path="url(#clip0_562_12657)">
<path opacity="0.1" d="M79 141C116.003 141 146 111.003 146 74C146 36.9969 116.003 7 79 7C41.9969 7 12 36.9969 12 74C12 111.003 41.9969 141 79 141Z" fill="#134298"/>
<path fill-rule="evenodd" clip-rule="evenodd" d="M45.28 86.924H53.271V92.294H45.28V86.924ZM58.598 86.924H63.925V92.294H58.6V86.924H58.598ZM58.598 97.664H63.925V103.034H58.6V97.664H58.598ZM47.944 76.183H61.261V81.553H47.944V76.183ZM45.28 97.664H53.271V103.034H45.28V97.664ZM151.007 54.7H84.775C85.0792 53.8375 85.234 52.9295 85.233 52.015V49.33H106.542C106.893 49.3286 107.241 49.258 107.564 49.1223C107.888 48.9865 108.182 48.7884 108.43 48.539C108.677 48.2897 108.873 47.9941 109.006 47.6691C109.139 47.3442 109.206 46.9962 109.205 46.645V3.685C109.206 3.33384 109.139 2.98584 109.006 2.66086C108.873 2.33588 108.677 2.0403 108.43 1.79097C108.182 1.54164 107.888 1.34346 107.564 1.20775C107.241 1.07203 106.893 1.00144 106.542 1H45.28C44.9289 1.00144 44.5814 1.07203 44.2576 1.20775C43.9337 1.34346 43.6397 1.54164 43.3924 1.79097C43.1451 2.0403 42.9494 2.33588 42.8163 2.66086C42.6833 2.98584 42.6156 3.33384 42.617 3.685V11.74H39.953C39.6027 11.7402 39.2559 11.8099 38.9327 11.945C38.6095 12.08 38.3163 12.2779 38.07 12.527L30.859 19.796H23.972C23.9746 19.0867 23.6955 18.4054 23.1959 17.9019C22.6964 17.3984 22.0173 17.1139 21.308 17.111H0V22.481H18.645V52.017H0V57.387H21.308C22.0173 57.3841 22.6964 57.0996 23.1959 56.5961C23.6955 56.0926 23.9746 55.4113 23.972 54.702H31.962C32.506 54.7008 33.0367 54.5328 33.4824 54.2208C33.9282 53.9088 34.2676 53.4678 34.455 52.957L40.733 59.286C40.9795 59.5351 41.2729 59.7329 41.5963 59.868C41.9196 60.0031 42.2666 60.0728 42.617 60.073H55.691C55.5121 60.5739 55.3838 61.0915 55.308 61.618L54.766 65.443H47.944C44.3988 65.461 41.0056 66.8846 38.5088 69.4014C36.012 71.9183 34.6156 75.3228 34.626 78.868V108.4H15.981C15.6299 108.401 15.2824 108.472 14.9586 108.608C14.6347 108.743 14.3407 108.942 14.0934 109.191C13.8461 109.44 13.6504 109.736 13.5173 110.061C13.3843 110.386 13.3165 110.734 13.318 111.085C13.3076 114.63 14.7039 118.034 17.2004 120.551C19.697 123.068 23.09 124.492 26.635 124.51H46.4L46.18 126.056C45.9978 127.343 46.1271 128.655 46.557 129.881H7.98999C5.85367 129.881 3.80486 130.73 2.29425 132.24C0.783645 133.751 -0.0650024 135.8 -0.0650024 137.936C-0.0650024 140.072 0.783645 142.121 2.29425 143.632C3.80486 145.142 5.85367 145.991 7.98999 145.991H141.168C142.674 145.977 144.146 145.542 145.417 144.735C146.689 143.927 147.709 142.78 148.361 141.422C149.014 140.065 149.273 138.552 149.11 137.055C148.947 135.557 148.368 134.136 147.438 132.951C148.708 131.713 149.533 130.09 149.785 128.335L158.917 63.892C159.223 61.7849 158.681 59.6423 157.41 57.934C156.139 56.2256 154.243 55.0907 152.137 54.778C151.763 54.7251 151.385 54.699 151.007 54.7V54.7ZM47.944 43.96V27.851H103.878V43.962H47.944V43.96ZM66.13 22.479C66.7406 20.7411 66.7406 18.8469 66.13 17.109H103.878V22.479H66.13ZM47.944 6.37H103.878V11.74H47.944V6.37ZM29.3 49.332H23.973V25.166H29.3V49.332ZM34.627 45.532V23.593L41.057 17.111H58.6C59.3121 17.111 59.9951 17.3939 60.4986 17.8974C61.0021 18.401 61.285 19.0839 61.285 19.796C61.285 20.5081 61.0021 21.191 60.4986 21.6946C59.9951 22.1981 59.3121 22.481 58.6 22.481H45.28C44.9289 22.4824 44.5814 22.553 44.2576 22.6888C43.9337 22.8245 43.6397 23.0226 43.3924 23.272C43.1451 23.5213 42.9494 23.8169 42.8163 24.1419C42.6833 24.4668 42.6156 24.8148 42.617 25.166V46.647C42.6156 46.9982 42.6833 47.3462 42.8163 47.6711C42.9494 47.9961 43.1451 48.2917 43.3924 48.541C43.6397 48.7904 43.9337 48.9885 44.2576 49.1243C44.5814 49.26 44.9289 49.3306 45.28 49.332H79.906V52.017C79.9084 52.726 79.6293 53.407 79.13 53.9104C78.6307 54.4139 77.952 54.6986 77.243 54.702H43.72L34.627 45.532ZM39.954 78.865C39.9481 76.738 40.7861 74.6954 42.2842 73.1854C43.7822 71.6754 45.818 70.8211 47.945 70.81H71.923C70.1856 73.1358 69.2488 75.962 69.253 78.865V111.09C69.2648 112.147 69.0669 113.196 68.6706 114.175C68.2743 115.155 67.6877 116.047 66.9445 116.798C66.2014 117.55 65.3165 118.146 64.3412 118.554C63.3659 118.961 62.3194 119.17 61.2625 119.17C60.2056 119.17 59.1592 118.961 58.1838 118.554C57.2085 118.146 56.3237 117.55 55.5805 116.798C54.8373 116.047 54.2506 115.155 53.8544 114.175C53.4581 113.196 53.2601 112.147 53.272 111.09C53.2746 110.381 52.9955 109.699 52.4959 109.196C51.9963 108.692 51.3173 108.408 50.608 108.405H39.953V78.868L39.954 78.865ZM90.103 76.18H79.903C77.9459 76.1796 76.0579 76.9038 74.603 78.213C74.7338 76.3794 75.4939 74.6472 76.7549 73.3095C78.0158 71.9718 79.7001 71.1108 81.5228 70.872C83.3456 70.6332 85.1948 71.0314 86.7578 71.9992C88.3207 72.967 89.5013 74.4449 90.1 76.183L90.103 76.18ZM103.879 109.65L97.746 113.772H74.311C74.4896 112.888 74.5794 111.989 74.579 111.087V108.4H93.224C93.5752 108.399 93.9226 108.328 94.2465 108.192C94.5703 108.057 94.8643 107.858 95.1116 107.609C95.3589 107.36 95.5546 107.064 95.6877 106.739C95.8207 106.414 95.8885 106.066 95.887 105.715V89.609C95.8885 89.2579 95.8207 88.9098 95.6877 88.5849C95.5546 88.2599 95.3589 87.9643 95.1116 87.715C94.8643 87.4656 94.5703 87.2675 94.2465 87.1317C93.9226 86.996 93.5752 86.9255 93.224 86.924H79.906C79.2027 86.9104 78.5328 86.6215 78.0403 86.1194C77.5477 85.6172 77.2719 84.9419 77.2719 84.2385C77.2719 83.5351 77.5477 82.8598 78.0403 82.3576C78.5328 81.8555 79.2027 81.5666 79.906 81.553H97.448L103.878 88.036V109.653L103.879 109.65ZM74.579 90.233C76.0371 91.5573 77.9363 92.291 79.906 92.291H90.56V103.031H74.579V90.231V90.233ZM19.1 113.775H48.21C48.6032 115.72 49.4229 117.554 50.61 119.145H26.635C24.9778 119.14 23.363 118.62 22.0134 117.658C20.6638 116.697 19.6459 115.34 19.1 113.775V113.775ZM52.073 128.96C51.8204 128.67 51.6338 128.328 51.5259 127.959C51.418 127.59 51.3914 127.202 51.448 126.821L51.775 124.515H61.26C63.3306 124.513 65.372 124.026 67.2208 123.094C69.0695 122.161 70.6744 120.809 71.907 119.145H98.55C99.0765 119.145 99.5911 118.988 100.028 118.694L104.606 115.617C104.853 115.883 105.153 116.095 105.486 116.24C105.819 116.385 106.178 116.46 106.541 116.46H114.531C114.528 117.169 114.807 117.851 115.307 118.354C115.807 118.858 116.486 119.142 117.195 119.145H127.85V113.775H119.859V86.924H133.177V81.553H117.2C116.491 81.5562 115.812 81.8409 115.312 82.3445C114.812 82.8482 114.533 83.5296 114.536 84.239H107.649L100.438 76.97C100.192 76.7209 99.8985 76.5231 99.5753 76.388C99.2521 76.2529 98.9053 76.1832 98.555 76.183H95.62C95.0146 73.1636 93.3854 70.4459 91.0076 68.489C88.6299 66.5321 85.6494 65.4562 82.57 65.443H60.147L60.581 62.378C60.6726 61.7425 60.9891 61.161 61.473 60.739C61.9568 60.3169 62.576 60.0824 63.218 60.078H141.167C141.55 60.082 141.927 60.1675 142.274 60.3288C142.621 60.4901 142.929 60.7235 143.179 61.0135C143.428 61.3034 143.613 61.6432 143.721 62.0103C143.829 62.3773 143.857 62.7631 143.804 63.142L134.672 127.585C134.581 128.221 134.265 128.804 133.781 129.227C133.297 129.65 132.678 129.886 132.035 129.891H54.086C53.703 129.892 53.3243 129.81 52.9766 129.649C52.629 129.488 52.3209 129.253 52.074 128.96H52.073ZM114.531 111.09H109.204V89.609H114.531V111.09ZM5.32703 137.941C5.32516 137.232 5.60439 136.551 6.10358 136.048C6.60276 135.545 7.28113 135.26 7.98999 135.256H67.047C66.4364 136.994 66.4364 138.888 67.047 140.626H7.98999C7.28113 140.622 6.60276 140.337 6.10358 139.834C5.60439 139.331 5.32516 138.65 5.32703 137.941ZM141.168 140.626H74.579C73.8669 140.626 73.184 140.343 72.6804 139.84C72.1769 139.336 71.894 138.653 71.894 137.941C71.894 137.229 72.1769 136.546 72.6804 136.042C73.184 135.539 73.8669 135.256 74.579 135.256H141.168C141.88 135.256 142.563 135.539 143.067 136.042C143.57 136.546 143.853 137.229 143.853 137.941C143.853 138.653 143.57 139.336 143.067 139.84C142.563 140.343 141.88 140.626 141.168 140.626V140.626ZM153.644 63.137L144.512 127.58C144.421 128.216 144.105 128.799 143.621 129.222C143.137 129.645 142.518 129.881 141.875 129.886V129.919C141.642 129.898 141.406 129.886 141.168 129.886H139.562C139.74 129.385 139.869 128.867 139.945 128.34L149.077 63.897C149.26 62.6106 149.131 61.2991 148.701 60.073H151.007C151.358 60.0743 151.706 60.1448 152.03 60.2805C152.354 60.4162 152.648 60.6143 152.895 60.8637C153.142 61.113 153.338 61.4087 153.471 61.7337C153.604 62.0587 153.672 62.4068 153.67 62.758C153.67 62.8848 153.661 63.0114 153.644 63.137ZM53.271 33.221H58.6V38.592H53.273V33.221H53.271ZM63.925 33.221H74.579V38.592H63.925V33.221ZM79.906 33.221H85.233V38.592H79.906V33.221Z" fill="url(#paint0_linear_562_12657)"/>
</g>
<defs>
<linearGradient id="paint0_linear_562_12657" x1="-2.43784e-06" y1="73.5" x2="159" y2="73.5" gradientUnits="userSpaceOnUse">
<stop stop-color="#ED1117"/>
<stop offset="1" stop-color="#134298"/>
</linearGradient>
<clipPath id="clip0_562_12657">
<rect width="159" height="148" fill="white"/>
</clipPath>
</defs>
</svg>
