<svg width="20" height="20" viewBox="0 0 20 20" fill="none" xmlns="http://www.w3.org/2000/svg"><path d="M10.0013 1.66699C5.39297 1.66699 1.66797 5.39199 1.66797 10.0003C1.66797 14.6087 5.39297 18.3337 10.0013 18.3337C14.6096 18.3337 18.3346 14.6087 18.3346 10.0003C18.3346 5.39199 14.6096 1.66699 10.0013 1.66699ZM10.0013 16.667C6.3263 16.667 3.33464 13.6753 3.33464 10.0003C3.33464 6.32533 6.3263 3.33366 10.0013 3.33366C13.6763 3.33366 16.668 6.32533 16.668 10.0003C16.668 13.6753 13.6763 16.667 10.0013 16.667ZM12.993 5.83366L10.0013 8.82533L7.00964 5.83366L5.83464 7.00866L8.8263 10.0003L5.83464 12.992L7.00964 14.167L10.0013 11.1753L12.993 14.167L14.168 12.992L11.1763 10.0003L14.168 7.00866L12.993 5.83366Z" fill="#F88C00"></path></svg>