<svg width="54" height="54" viewBox="0 0 54 54" fill="none" xmlns="http://www.w3.org/2000/svg"><circle cx="27" cy="27" r="26" fill="white" stroke="#154398" stroke-width="2"></circle><path d="M43.0563 37.3135H41.9677V35.7329H43.0563C43.1247 35.7329 43.18 35.6772 43.18 35.6092V29.8996C43.18 29.8696 43.169 29.8407 43.1488 29.8178L37.455 23.4131C37.4317 23.3871 37.3977 23.3716 37.3625 23.3716H32.3658V35.7329H36.8291V37.3135H30.7852V21.791H37.3625C37.8486 21.791 38.3133 21.9993 38.6365 22.3628L44.3299 28.7675C44.6073 29.0793 44.7606 29.4815 44.7606 29.8996V35.6088C44.7606 36.5489 43.996 37.3135 43.0563 37.3135Z" fill="#154398"></path><path d="M32.3665 37.3134H20.6643V35.7328H30.7858V19.953C30.7858 19.007 30.2057 18.2076 29.5194 18.2076H12.0448C11.358 18.208 10.7779 19.007 10.7779 19.953V35.3009C10.7779 35.5794 10.9292 35.7328 10.9794 35.7328H15.5296V37.3134H10.9794C9.99667 37.3134 9.19727 36.4108 9.19727 35.3009V19.953C9.19727 18.1191 10.4744 16.627 12.0448 16.627H29.5194C31.0893 16.627 32.3665 18.1187 32.3665 19.953V37.3134Z" fill="#154398"></path><path d="M39.3987 39.7528C37.5462 39.7528 36.0391 38.2457 36.0391 36.3928C36.0391 34.5399 37.5458 33.0332 39.3987 33.0332C41.2516 33.0332 42.7583 34.5399 42.7583 36.3928C42.7583 38.2457 41.2512 39.7528 39.3987 39.7528ZM39.3987 34.6138C38.4179 34.6138 37.6197 35.412 37.6197 36.3928C37.6197 37.374 38.4179 38.1722 39.3987 38.1722C40.3795 38.1722 41.1777 37.374 41.1777 36.3928C41.1777 35.4116 40.3795 34.6138 39.3987 34.6138Z" fill="#154398"></path><path d="M18.0959 39.7528C16.2435 39.7528 14.7363 38.2457 14.7363 36.3928C14.7363 34.5399 16.2435 33.0332 18.0959 33.0332C19.9484 33.0332 21.4556 34.5399 21.4556 36.3928C21.4556 38.2457 19.9484 39.7528 18.0959 39.7528ZM18.0959 34.6138C17.1152 34.6138 16.317 35.412 16.317 36.3928C16.317 37.374 17.1152 38.1722 18.0959 38.1722C19.0767 38.1722 19.8749 37.374 19.8749 36.3928C19.8749 35.4116 19.0767 34.6138 18.0959 34.6138Z" fill="#154398"></path><path d="M43.9719 30.3433H35.936C35.0493 30.3433 34.3281 29.6221 34.3281 28.7354V22.582H35.9088V28.7358L43.9719 28.7627V30.3433Z" fill="#154398"></path></svg>