<svg width="54" height="54" viewBox="0 0 54 54" fill="none" xmlns="http://www.w3.org/2000/svg"><circle cx="27" cy="27" r="26" fill="white" stroke="#154398" stroke-width="2"></circle><path d="M31.871 10C32.0599 10 32.2362 10.0541 32.3851 10.1478C32.4462 10.1862 32.5032 10.2314 32.5551 10.2833L39.522 17.2502C39.7033 17.4315 39.8051 17.6773 39.8051 17.9337V24.9877C39.8051 25.5216 39.3723 25.9543 38.8384 25.9543C38.3045 25.9543 37.8718 25.5216 37.8718 24.9877V18.9002H31.871C31.3372 18.9002 30.9044 18.4674 30.9044 17.9335V11.9335H14.9333V41.9782H26.8554C27.3892 41.9782 27.8221 42.4109 27.8221 42.9448C27.8221 43.4787 27.3892 43.9114 26.8554 43.9114H13.9666C13.4328 43.9114 13 43.4787 13 42.9448V10.9669C13 10.433 13.4328 10.0001 13.9666 10.0001H31.8528L31.871 10ZM32.8377 16.9669V13.3L36.5045 16.9669H32.8377ZM20.7941 20.9378C20.2603 20.9378 19.8275 21.3706 19.8275 21.9045C19.8275 22.4384 20.2603 22.8711 20.7941 22.8711H31.3141C31.848 22.8711 32.2808 22.4384 32.2808 21.9045C32.2808 21.3706 31.848 20.9378 31.3141 20.9378H20.7941ZM16.7182 26.3633C16.7182 25.8294 17.151 25.3966 17.6849 25.3966H27.8218C28.3557 25.3966 28.7885 25.8294 28.7885 26.3633C28.7885 26.8972 28.3557 27.3299 27.8218 27.3299H17.6849C17.151 27.3299 16.7182 26.8972 16.7182 26.3633ZM18.007 29.8555C17.4731 29.8555 17.0404 30.2882 17.0404 30.8221C17.0404 31.356 17.4731 31.7887 18.007 31.7887H24.0857C24.6195 31.7887 25.0523 31.356 25.0523 30.8221C25.0523 30.2882 24.6195 29.8555 24.0857 29.8555H18.007ZM17.0404 35.2809C17.0404 34.747 17.4731 34.3143 18.007 34.3143H23.18C23.7138 34.3143 24.1466 34.747 24.1466 35.2809C24.1466 35.8148 23.7138 36.2475 23.18 36.2475H18.007C17.4731 36.2475 17.0404 35.8148 17.0404 35.2809ZM27.2644 35.0023C27.2644 31.1113 30.4186 27.957 34.3097 27.957C38.2006 27.957 41.3549 31.1113 41.3549 35.0023C41.3549 38.8933 38.2006 42.0475 34.3097 42.0475C30.4186 42.0475 27.2644 38.8933 27.2644 35.0023ZM34.3097 26.0238C29.3509 26.0238 25.331 30.0435 25.331 35.0023C25.331 39.961 29.3509 43.9809 34.3097 43.9809C39.2684 43.9809 43.2882 39.961 43.2882 35.0023C43.2882 30.0435 39.2684 26.0238 34.3097 26.0238Z" fill="#154398" fill-rule="evenodd" clip-rule="evenodd"></path><path d="M34.2662 34.4158C36.0424 34.4158 37.4883 35.7011 37.4883 37.28C37.4883 38.61 36.4572 39.7217 35.0717 40.0421V40.7707C35.0717 41.2156 34.711 41.5762 34.2662 41.5762C33.8212 41.5762 33.4606 41.2156 33.4606 40.7707V40.0421C32.3616 39.7879 31.4857 39.036 31.1703 38.0722C31.032 37.6494 31.4046 37.28 31.8495 37.28C32.2944 37.28 32.6424 37.6706 32.8977 38.0349C33.1824 38.4411 33.6894 38.712 34.2662 38.712C35.1543 38.712 35.8772 38.0694 35.8772 37.28C35.8772 36.4905 35.1543 35.8479 34.2662 35.8479C32.49 35.8479 31.0439 34.5626 31.0439 32.9837C31.0439 31.6537 32.0751 30.542 33.4606 30.2216V29.493C33.4606 29.0482 33.8212 28.6875 34.2662 28.6875C34.711 28.6875 35.0717 29.0482 35.0717 29.493V30.2216C36.1706 30.4758 37.0466 31.2277 37.3619 32.1915C37.5003 32.6143 37.1277 32.9837 36.6828 32.9837C36.2379 32.9837 35.8899 32.5931 35.6346 32.2288C35.3499 31.8226 34.8428 31.5517 34.2662 31.5517C33.378 31.5517 32.6551 32.1943 32.6551 32.9837C32.6551 33.7732 33.378 34.4158 34.2662 34.4158Z" fill="#154398"></path></svg>